<?xml version="1.0" encoding="utf-8"?>
<!-- Generator: Adobe Illustrator 21.0.0, SVG Export Plug-In . SVG Version: 6.00 Build 0)  -->
<svg version="1.1" id="Шар_1" xmlns="http://www.w3.org/2000/svg" xmlns:xlink="http://www.w3.org/1999/xlink" x="0px" y="0px"
	 viewBox="0 0 496 512" style="enable-background:new 0 0 496 512;" xml:space="preserve">

	<defs>
		<linearGradient id="SVGID_1_" gradientUnits="userSpaceOnUse" x1="247.9914" y1="2" x2="247.9914" y2="512.2715">
			<stop  offset="0" style="stop-color:#FFE233"/>
			<stop  offset="1" style="stop-color:#FF6644"/>
		</linearGradient>
	</defs>

	<path class="st0"
		fill="url(#SVGID_1_)"
		d="M479.6,299.9h-7.7v-69c0-10.9-5.4-20.6-13.7-26.5V195c0-13.6-11.1-24.7-24.7-24.7h-5.7l21.9-32.1
		c7.3-10.8,4.5-25.5-6.2-32.8L294.9,4.1c-5.2-3.6-11.5-4.9-17.7-3.7c-6.2,1.2-11.6,4.7-15.1,9.9L133.8,198.5H98.2l8.6-87.1
		c0.1-1,0.7-1.8,1.6-2.2c11.1-4.2,20.7-12,27.1-22c0.5-0.8,1.4-1.2,2.4-1.1l56,5.5c4,0.4,7.6-2.5,8-6.5c0.4-4-2.5-7.6-6.5-8l-56-5.5
		c-6.5-0.6-12.7,2.4-16.2,7.8c-4.7,7.4-11.7,13.1-19.9,16.2c-6.1,2.3-10.4,7.8-11,14.4l-8.7,88.6h-9.3L87.8,60.6
		c0.5-5,4.9-8.6,9.9-8.1l113.1,11.2c4,0.4,7.6-2.5,8-6.5c0.4-4-2.5-7.6-6.5-8L99.1,38c-13-1.3-24.6,8.2-25.8,21.2l-11,111.1H43.6
		c-13.6,0-24.7,11.1-24.7,24.7v6.4C7.8,206.5,0,217.8,0,230.9v248.7C0,497.5,14.5,512,32.4,512h407.1c17.9,0,32.4-14.5,32.4-32.4v-69
		h7.7c9,0,16.4-7.4,16.4-16.4v-77.9C496,307.3,488.6,299.9,479.6,299.9 M433.5,184.9c5.6,0,10.1,4.5,10.1,10.1v3.7
		c-1.3-0.2-2.7-0.3-4.1-0.3h-31l9.3-13.6L433.5,184.9L433.5,184.9z M274.1,18.5c1.4-2,3.4-3.3,5.8-3.8c0.6-0.1,1.1-0.2,1.7-0.2
		c1.8,0,3.6,0.5,5.1,1.6l148.5,101.2c4.1,2.8,5.2,8.4,2.4,12.6l-46.7,68.5h-11.2l22.9-33.6c3.7-5.4,4-12.4,0.8-18.1
		c-4.3-7.6-6-16.5-4.9-25.2c0.8-6.4-2-12.7-7.4-16.4l-77-52.5c-5.4-3.7-12.3-4-17.9-0.9c-7.6,4.2-16.6,5.9-25.2,4.7
		c-6.4-0.9-12.9,2-16.5,7.4l-91.7,134.6h-11.2L274.1,18.5z M277.3,142.4c-31.8,0-57.9,24.8-60,56h-37l86.1-126.3
		c0.5-0.7,1.3-1.1,2.1-1.1c0.1,0,0.2,0,0.3,0c11.7,1.6,23.9-0.6,34.3-6.3c0.8-0.5,1.9-0.4,2.7,0.2l77,52.5c0.8,0.6,1.2,1.5,1.1,2.4
		c-1.5,11.7,0.8,23.9,6.6,34.2c0.5,0.8,0.4,1.9-0.1,2.7L362,198.5h-24.7C335.2,167.2,309.1,142.4,277.3,142.4 M322.7,198.5H232
		c2.1-23.2,21.6-41.4,45.3-41.4C301,157,320.6,175.3,322.7,198.5 M33.5,195c0-5.6,4.5-10.1,10.1-10.1h17.2l-1.3,13.6h-26V195z
		 M14.6,230.9c0-9.8,8-17.8,17.8-17.8h407.1c9.8,0,17.8,8,17.8,17.8v20.2H14.6V230.9z M457.3,444.7H100.6c-4,0-7.3,3.3-7.3,7.3
		c0,4,3.3,7.3,7.3,7.3h356.7v20.2c0,9.8-8,17.8-17.8,17.8H32.4c-9.8,0-17.8-8-17.8-17.8v-20.2h39.3c4,0,7.3-3.3,7.3-7.3
		c0-4-3.3-7.3-7.3-7.3H14.6v-179h442.7v34.2H388h0c-21.9,0-40.8,12.7-49.8,31.2c0,0.1-0.1,0.1-0.1,0.2c-0.1,0.2-0.1,0.3-0.2,0.5
		c-1.1,2.3-2,4.6-2.8,7.1c0,0,0,0,0,0c-1.6,5.2-2.5,10.7-2.5,16.4c0,30.5,24.8,55.3,55.3,55.3h0h69.4L457.3,444.7L457.3,444.7z
		 M481.4,394.2c0,1-0.8,1.8-1.8,1.8H388c-15.4,0-28.9-8.6-35.8-21.3c-0.3-0.6-0.6-1.2-0.9-1.8c-0.6-1.2-1.1-2.4-1.5-3.7
		c-1.6-4.4-2.5-9.1-2.5-14s0.9-9.6,2.5-14c0.5-1.2,1-2.5,1.5-3.7c0.3-0.6,0.6-1.2,0.9-1.8c6.9-12.7,20.4-21.3,35.8-21.3h91.6
		c1,0,1.8,0.8,1.8,1.8V394.2z M389.7,325.6c-16.3,0-29.6,13.3-29.6,29.6c0,16.3,13.3,29.6,29.6,29.6c16.3,0,29.6-13.3,29.6-29.6
		C419.3,338.9,406,325.6,389.7,325.6 M389.7,370.2c-8.3,0-15-6.7-15-15c0-8.3,6.7-15,15-15c8.3,0,15,6.7,15,15
		C404.7,363.5,397.9,370.2,389.7,370.2"/>
</svg>
