<?xml version="1.0" encoding="utf-8"?>
<!-- Generator: Adobe Illustrator 21.0.0, SVG Export Plug-In . SVG Version: 6.00 Build 0)  -->
<svg version="1.1" id="Шар_1" xmlns="http://www.w3.org/2000/svg" xmlns:xlink="http://www.w3.org/1999/xlink" x="0px" y="0px"
	 viewBox="0 0 512 512" style="enable-background:new 0 0 512 512;" xml:space="preserve">
	 <defs>
		<linearGradient id="SVGID_1_" gradientUnits="userSpaceOnUse" x1="256.0002" y1="7.324219e-04" x2="256.0002" y2="512.0131">
			<stop  offset="0" style="stop-color:#FFE233"/>
			<stop  offset="1" style="stop-color:#FF6644"/>
		</linearGradient>
	 </defs>

	 <path className="st0"
	   fill="url(#SVGID_1_)"
		 d="M93.9,59.7c0,4.7-3.8,8.5-8.5,8.5c-4.7,0-8.5-3.8-8.5-8.5V8.5c0-4.7,3.8-8.5,8.5-8.5c4.7,0,8.5,3.8,8.5,8.5
		 V59.7 M469.3,25.6c23.6,0,42.6,19.1,42.7,42.7v285.9c-0.1,0.5-0.1,1-0.3,1.4c-2.4,71.3-51.2,132.7-120.2,151
		 c-69,18.3-141.8-10.7-179.3-71.4H42.7C19.1,435.2,0,416.1,0,392.5V68.3c0-23.6,19.1-42.6,42.7-42.7h8.5c2.3,0,4.4,0.9,6,2.5
		 c1.6,1.6,2.5,3.8,2.5,6v25.6c0,14.1,11.5,25.6,25.6,25.6c14.1,0,25.6-11.5,25.6-25.6V34.1c0-2.3,0.9-4.4,2.5-6
		 c1.6-1.6,3.8-2.5,6-2.5h273.1c2.3,0,4.4,0.9,6,2.5s2.5,3.8,2.5,6v25.6c0,14.1,11.5,25.6,25.6,25.6c14.1,0,25.6-11.5,25.6-25.6V34.1
		 c0-2.3,0.9-4.4,2.5-6c1.6-1.6,3.8-2.5,6-2.5H469.3 M494.9,221.9v-76.8H384v46.4c23.7,5.1,45.9,15.5,65,30.4H494.9z M191.4,315.7
		 c6.3-28.8,20.3-55.4,40.5-76.8h-86.9v76.8H191.4 M247.5,145.1H145.1v76.8h102.4V145.1z M128,145.1H17.1v76.8H128V145.1z M17.1,315.7
		 H128v-76.8H17.1V315.7z M264.5,212.3c25.6-16,55.2-24.5,85.3-24.5c5.7,0,11.4,0.3,17.1,0.9v-43.6H264.5V212.3z M42.7,42.7
		 c-14.1,0-25.6,11.5-25.6,25.6V128h477.9V68.3c0-14.1-11.5-25.6-25.6-25.6v17.1c0,23.6-19.1,42.7-42.7,42.7
		 c-23.6,0-42.7-19.1-42.7-42.7V42.7H128v17.1c0,23.6-19.1,42.7-42.7,42.7c-23.6,0-42.7-19.1-42.7-42.7V42.7 M17.1,392.5
		 c0,14.1,11.5,25.6,25.6,25.6H128v-85.3H17.1V392.5 M203,418.1c-10-21.4-15.3-44.7-15.3-68.3c0-5.7,0.3-11.4,0.9-17.1h-43.6v85.3H203
		 z M349.9,494.9c80.1-0.1,145-65,145.1-145.1c0-80.1-64.9-145.1-145.1-145.1s-145.1,64.9-145.1,145.1S269.7,494.9,349.9,494.9
		 M467.8,238.9c10.9,11.6,20.1,24.7,27.1,39v-39H467.8 M435.2,59.7V8.5c0-4.7-3.8-8.5-8.5-8.5c-4.7,0-8.5,3.8-8.5,8.5v51.2
		 c0,4.7,3.8,8.5,8.5,8.5C431.4,68.3,435.2,64.4,435.2,59.7 M349.9,221.9c70.7,0.1,127.9,57.3,128,128c0,70.7-57.3,128-128,128
		 s-128-57.3-128-128C221.9,279.2,279.2,221.9,349.9,221.9 M349.9,460.8c61.2-0.1,110.9-49.7,110.9-110.9
		 c0-61.3-49.7-110.9-110.9-110.9c-61.3,0-110.9,49.7-110.9,110.9C238.9,411.1,288.6,460.8,349.9,460.8 M358.4,346.3v-81.8
		 c0-4.7-3.8-8.5-8.5-8.5c-4.7,0-8.5,3.8-8.5,8.5v85.3c0,2.3,0.9,4.4,2.5,6l42.7,42.7c3.3,3.3,8.7,3.3,12-0.1c3.3-3.3,3.3-8.7,0.1-12
		 L358.4,346.3z"
	 />
 </svg>
