<?xml version="1.0" encoding="utf-8"?>
<!-- Generator: Adobe Illustrator 21.0.0, SVG Export Plug-In . SVG Version: 6.00 Build 0)  -->
<svg version="1.1" id="Шар_1" xmlns="http://www.w3.org/2000/svg" xmlns:xlink="http://www.w3.org/1999/xlink" x="0px" y="0px"
	 viewBox="0 0 503.6 503.6" style="enable-background:new 0 0 503.6 503.6;" xml:space="preserve">
	 <defs>
		 <linearGradient id="SVGID_1_" gradientUnits="userSpaceOnUse" x1="251.8038" y1="6.103516e-04" x2="251.8038" y2="503.6066">
			 <stop  offset="0" style="stop-color:#FFE233"/>
			 <stop  offset="1" style="stop-color:#FF6644"/>
		 </linearGradient>
	 </defs>

<style type="text/css">
	.st0{fill:url(#SVGID_1_);}
</style>

	<path class="st0"
		fill="url(#SVGID_1_)"
		d="M251.8,503.6C113.3,503.6,0,391.1,0,251.8C0,112.5,113.3,0,251.8,0s251.8,113.3,251.8,251.8
		S390.3,503.6,251.8,503.6 M251.8,16.8c-129.3,0-235,105.8-235,235s105.8,235,235,235s235-105.8,235-235S381.1,16.8,251.8,16.8
		 M251.8,419.7c92.3,0,167.9-74.7,167.9-167.9c0-92.3-75.5-167.9-167.9-167.9S83.9,159.5,83.9,251.8c0,9.2,0.8,18.5,2.5,26.9
		c0,4.2,5,7.6,9.2,6.7c4.2,0,7.6-5,6.7-9.2c-0.8-7.6-1.7-15.9-1.7-24.3c0-83.1,68-151.1,151.1-151.1s151.1,68,151.1,151.1
		c0,83.1-68,151.1-151.1,151.1c-40.3,0-78.1-15.1-106.6-44.5c-3.4-3.4-8.4-3.4-11.8,0c-3.4,3.4-3.4,8.4,0,11.8
		C164.5,402,207.3,419.7,251.8,419.7 M251.8,335.7c46.2,0,83.9-37.8,83.9-83.9c0-46.2-37.8-83.9-83.9-83.9s-83.9,37.8-83.9,83.9
		c0,5,0,9.2,1.7,13.4c0,4.2,5,7.6,9.2,6.7c4.2,0,7.6-5,6.7-9.2c-0.8-3.4-0.8-7.6-0.8-10.9c0-36.9,30.2-67.1,67.1-67.1
		c36.9,0,67.1,30.2,67.1,67.1S288.7,319,251.8,319c-18.5,0-35.3-6.7-47.8-19.3c-3.4-3.4-8.4-3.4-11.8,0c-3.4,3.4-3.4,8.4,0,11.8
		C208.2,327.3,229.1,335.7,251.8,335.7 M109.1,402.9c2.5,0,4.2-0.8,5.9-2.5l125.1-125.1c3.4-3.4,3.4-8.4,0-11.8
		c-3.4-3.4-8.4-3.4-11.8,0L103.2,388.6c-3.4,3.4-3.4,8.4,0,11.8C104.9,402,106.6,402.9,109.1,402.9 M92.3,159.5
		c0-9.2-7.6-16.8-16.8-16.8s-16.8,7.6-16.8,16.8c0,9.2,7.6,16.8,16.8,16.8S92.3,168.7,92.3,159.5 M352.5,327.3
		c0-9.2-7.6-16.8-16.8-16.8c-9.2,0-16.8,7.6-16.8,16.8c0,9.2,7.6,16.8,16.8,16.8C345,344.1,352.5,336.6,352.5,327.3 M377.7,92.3
		c0-9.2-7.6-16.8-16.8-16.8s-16.8,7.6-16.8,16.8c0,9.2,7.6,16.8,16.8,16.8S377.7,101.6,377.7,92.3 M251.8,285.4
		c-18.5,0-33.6-15.1-33.6-33.6c0-18.5,15.1-33.6,33.6-33.6s33.6,15.1,33.6,33.6C285.4,270.3,270.3,285.4,251.8,285.4 M251.8,235
		c-9.2,0-16.8,7.6-16.8,16.8c0,9.2,7.6,16.8,16.8,16.8c9.2,0,16.8-7.6,16.8-16.8C268.6,242.6,261,235,251.8,235"
	/>
</svg>
