<svg xmlns="http://www.w3.org/2000/svg" xmlnsxlink="http://www.w3.org/1999/xlink"
  id="icon-certificate" viewBox="0 0 438.8 438.8"
>
  <defs>
  <linearGradient id="SVGID_1_" gradientUnits="userSpaceOnUse" x1="256.0002" y1="7.324219e-04" x2="256.0002" y2="512.0131">
  <stop  offset="0" style="stop-color:#FFE233"/>
  <stop  offset="1" style="stop-color:#FF6644"/>
  </linearGradient>
  </defs>

  <g>
  <path
  fill="url(#SVGID_1_)"
  d="M378.8,248.2l-29.5-28.8l29.5-28.8c4.3-4,5.7-9,4.3-15c-1.7-5.8-5.4-9.5-11.1-10.9l-40.2-10.3l11.3-39.7
  c1.7-5.8,0.4-10.8-4.1-15c-4.1-4.4-9.1-5.8-15-4.1L284.4,107l-10.3-40.2c-1.4-5.8-5.1-9.5-10.9-10.9c-5.8-1.6-10.8-0.2-15,4.1
  l-28.8,29.7L190.6,60c-4.1-4.4-9.1-5.8-15-4.1c-5.8,1.4-9.5,5.1-10.9,10.9L154.5,107l-39.7-11.3c-5.8-1.7-10.8-0.4-15,4.1
  c-4.4,4.1-5.8,9.1-4.1,15l11.3,39.7l-40.2,10.3c-5.7,1.4-9.4,5.1-11.1,10.9c-1.4,6,0,11,4.3,15l29.5,28.8L60,248.2
  c-4.3,4-5.7,9-4.3,15c1.7,5.8,5.4,9.5,11.1,10.9l40.2,10.3l-11.3,39.7c-1.7,5.8-0.4,10.8,4.1,15c4.1,4.4,9.1,5.8,15,4.1l39.7-11.3
  l10.3,40.2c1.4,5.8,5.1,9.5,10.9,11.1c6,1.4,11,0,15-4.3l28.8-29.5l28.8,29.5c2.8,3.1,6.5,4.7,10.9,4.7c1,0,2.4-0.1,4.1-0.4
  c5.8-1.7,9.5-5.4,10.9-11.1l10.3-40.2l39.7,11.3c5.8,1.7,10.8,0.4,15-4.1c4.4-4.1,5.8-9.1,4.1-15l-11.3-39.7l40.2-10.3
  c5.7-1.4,9.4-5.1,11.1-10.9C384.5,257.2,383.1,252.2,378.8,248.2z"/>
  </g>
</svg>
