
<svg xmlns="http://www.w3.org/2000/svg" xmlnsxlink="http://www.w3.org/1999/xlink"
			id="icon-process-4" viewBox="0 0 391.8 346">
  <style type="text/css">
  .st0{clip-path:url(#SVGID_2_);}
  </style>
  <g>

  <clipPath id="SVGID_4_">
		<rect id="SVGID_4_" width="391.8" height="346" style="overflow:visible;"/>
  </clipPath>

  <path class="st0" d="M196,346c35.8,0,70.6-8.6,101-24.8c15.9,8.4,34,12.6,53.8,12.6c6.2,0,12.5-0.4,18.7-1.3
  c6.2-0.9,11-5.4,12.4-11.4c1.4-6.2-1.1-12.3-6.5-15.8c-10.2-6.7-18.1-16-23.4-27.8c25.7-29.9,39.8-66.8,39.8-104.5
  c0-95.4-87.9-173-195.9-173C87.8,0,0,77.6,0,173S87.9,346,196,346 M19.7,173C19.7,88.5,98.8,19.7,196,19.7S372.3,88.5,372.3,173
  c0,35.3-13.4,68.4-38.8,95.9c-2.5,2.7-3.3,6.6-2,10.1c5.3,14.2,13.1,26,23.4,35.3c-19.8,0.7-37.8-3.6-52.9-12.6
  c-1.5-1-3.3-1.4-5-1.4c-1.7,0-3.4,0.4-4.9,1.3c-28.7,16.3-62,25-96.3,25C98.7,326.4,19.7,257.6,19.7,173"/>
  <path class="st0" d="M120.1,116.7c-10.7,10.7-16.6,25-16.6,40.2c0,15.1,5.9,29.4,16.6,40.1l63.8,63.8c3.1,3.1,7.5,5,12,5
  c4.6,0,8.8-1.8,12-5l63.9-63.9c10.7-10.7,16.6-25,16.6-40.1s-5.8-29.4-16.6-40.2c-10.7-10.7-25-16.6-40.1-16.6
  c-13.2,0-25.8,4.5-35.8,12.7c-10.1-8.2-22.6-12.7-35.8-12.7C145,100.2,130.8,106.1,120.1,116.7 M123.1,156.9
  c0-9.9,3.8-19.3,10.9-26.2c7-7,16.3-10.9,26.2-10.9c9.9,0,19.3,3.8,26.2,10.9l2.6,2.6c1.8,1.8,4.3,2.9,7,2.9c2.6,0,5.1-1,7-2.9
  l2.6-2.6c7-7,16.4-10.9,26.3-10.9c9.9,0,19.2,3.8,26.2,10.9c7,7,10.9,16.3,10.9,26.2c0,9.9-3.9,19.2-10.9,26.2l-62.2,62L134,183.1
  C127,176.2,123.1,166.8,123.1,156.9"/>
  </g>
</svg>

