
<svg xmlns="http://www.w3.org/2000/svg" xmlnsxlink="http://www.w3.org/1999/xlink"
      id="icon-process-1" viewBox="0 0 512 512">
  <g>

  <clipPath id="SVGID_1_">
		<rect id="SVGID_1_" width="391.8" height="346" style="overflow:visible;"/>
  </clipPath>

  <path class="st0" d="M451,271v-45c0-4.8-2.3-9.3-6.2-12.2c-3.9-2.8-8.9-3.6-13.5-2.1l-46,15.3c-7.3-17.4-20.9-31.4-37.9-39.2
  c8.9-15.6,13.6-33.3,13.6-51.9V75c0-41.4-33.6-75-75-75H136c-8.3,0-15,6.7-15,15v30c0,24.5,11.8,46.3,30,60v25.9
  c0,19.9,5.2,39.4,15,56.4c-17.6,7.7-31.7,22-39.2,39.8l-46-15.3c-4.6-1.5-9.6-0.8-13.5,2.1c-3.9,2.8-6.2,7.3-6.2,12.2v45
  c-32.9,0-61,26.6-61,60c0,33.4,28.1,60,61,60v46c0,6.5,4.1,12.2,10.3,14.2l180,60c1.5,0.5,3.1,0.8,4.7,0.8h0h0
  c1.5,0,3.2-0.3,4.7-0.8l180-60c6.1-2,10.3-7.8,10.3-14.2v-46c32.9,0,61-26.6,61-60C512,297.6,483.9,271,451,271 M331,136
  c0,20.8-8.3,40.1-23.4,54.4c-15.1,14.3-34.8,21.6-55.7,20.5c-39.1-2-70.9-37.9-70.9-80v-12.4c4.8,1,9.9,1.5,15,1.5h17.6
  c29.2,0,56.8-10.6,78.4-30h39V136z M151,45V30h135c19.6,0,36.2,12.5,42.4,30H286c-4,0-7.8,1.6-10.6,4.4
  C258.9,80.9,236.9,90,213.6,90H196C171.2,90,151,69.8,151,45 M185.4,212.3c17.9,17.2,40.6,27.3,65,28.6c1.9,0.1,3.8,0.1,5.7,0.1
  c26.8,0,52.1-10,71.8-28.4c12.7,3.5,23.2,12.3,28.8,24.1L256,270.2l-100.6-33.5C161.1,224.5,172.2,215.5,185.4,212.3 M30,331
  c0-16.3,14.2-30,31-30v60C44.2,361,30,347.3,30,331 M91,246.8l150,50v179.4l-150-50V246.8z M421,426.2l-150,50V296.8l150-50V426.2z
  M451,361v-60c16.8,0,31,13.7,31,30C482,347.3,467.8,361,451,361"/>
  </g>
</svg>
