<svg xmlns="http://www.w3.org/2000/svg" xmlnsxlink="http://www.w3.org/1999/xlink"
			id="icon-process-3" viewBox="0 0 512 512">
  <style type="text/css">
  .st0{clip-path:url(#SVGID_3_);}
  </style>
  <g>

  <clipPath id="SVGID_3_">
    <rect id="SVGID_3_" width="391.8" height="346" style="overflow:visible;"/>
  </clipPath>

  <path class="st0" d="M434.1,315.3L390,362.7c-5.7-18.3-22.8-31.7-43-31.7h-70.3c-9.7,0-19.1-3.5-26.3-9.9
  c-39.2-34.5-98.1-34.8-137.6-1C104.6,308.6,91.2,301,76,301H15c-8.3,0-15,6.7-15,15v181c0,8.3,6.7,15,15,15h61
  c13.5,0,25.6-6,33.8-15.4c31.7,8.9,61.4,15.4,102.2,15.4H347c32.9,0,64.3-15.7,84-42.1l72-97c0,0,0,0,0,0c0,0,0,0,0,0l0,0
  c0,0,0,0,0,0c5.8-7.8,8.9-17.1,8.9-26.9C512,305.1,461.7,285.6,434.1,315.3 M76,482H30V331h46c8.3,0,15,6.7,15,15v121
  C91,475.3,84.3,482,76,482 M407,452c-14.1,18.8-36.5,30-60,30H212.1c-35.2,0-62.8-5.4-91.3-13.4c0.1-1.7,0,7.5,0-115.8l10.7-9.2
  c28.2-24.9,70.8-24.9,99.1,0c12.8,11.2,29.2,17.4,46.2,17.4H347c8.3,0,15,6.7,15,15s-6.7,15-15,15H239.4c-8.3,0-15,6.7-15,15
  s6.7,15,15,15h117.7c12.4,0,24.4-5.2,32.9-14.3l66-70.9c2.9-3.1,6.8-4.8,11-4.8c12.4,0,19.4,14.2,12,24c0,0,0,0,0,0c0,0,0,0,0,0
  L407,452z"/>
  <path class="st0" d="M352.1,209.1c-7.7,2.8-16.7-1-24.6-10.4c-5.3-6.3-14.8-7.2-21.1-1.8c-6.3,5.3-7.2,14.8-1.8,21.1
  c8.1,9.7,17.5,16.3,27.4,19.6V255c0,8.3,6.7,15,15,15c8.3,0,15-6.7,15-15v-17.6c0.1,0,0.3-0.1,0.4-0.1
  c17.7-6.4,29.6-23.4,29.6-42.3c0-24.8-20.2-45-45-45c-8.3,0-15-6.7-15-15c0-6,3.6-11.5,9.2-13.8c6.7-2.8,14.8-0.4,22.1,6.7
  c6,5.8,15.4,5.6,21.2-0.3c5.8-6,5.6-15.4-0.3-21.2c-6.8-6.6-14.3-11.2-22.1-13.8V75c0-8.3-6.7-15-15-15c-8.3,0-15,6.7-15,15v17.6
  c-18.4,6.5-30,23.7-30,42.4c0,24.8,20.2,45,45,45c8.3,0,15,6.7,15,15C362,201.3,358,207,352.1,209.1"/>
  <path class="st0" d="M347,330c91,0,165-74,165-165S438,0,347,0S182,74,182,165S256,330,347,330 M347,30c74.4,0,135,60.6,135,135
  s-60.6,135-135,135s-135-60.6-135-135S272.6,30,347,30"/>
  </g>
</svg>

