
<svg xmlns="http://www.w3.org/2000/svg" xmlnsxlink="http://www.w3.org/1999/xlink"
			id="icon-process-2" viewBox="0 0 512 512">
  <g>

  <clipPath id="SVGID_2_">
		<rect id="SVGID_2_" width="391.8" height="346" style="overflow:visible;"/>
  </clipPath>

  <path class="st0" d="M108,167.6c-6.5-6.5-17.1-6.5-23.6,0c-6.5,6.5-6.5,17.1,0,23.6l16.2,16.2L1,489.7c-4.7,13.2,8.1,26,21.3,21.3
  l282.2-99.5l16.2,16.2c6.5,6.5,17.1,6.5,23.6,0c6.5-6.5,6.5-17.1,0-23.6C337.9,397.6,114.2,173.9,108,167.6 M44.1,467.9l21-59.4
  l38.5,38.5L44.1,467.9z M138.5,434.6l-61.1-61.1l18.5-52.4l95,95L138.5,434.6z M225.9,403.8L108.2,286.1l18.5-52.4l151.6,151.6
  L225.9,403.8z"/>
  <path class="st0" d="M361.1,127.3L256.7,231.6c-6.5,6.5-6.5,17.1,0,23.6c6.5,6.5,17.1,6.5,23.6,0l104.4-104.4
  c6.5-6.5,6.5-17.1,0-23.6C378.2,120.8,367.6,120.8,361.1,127.3"/>
  <path class="st0" d="M367.3,280.9h-58.4c-9.2,0-16.7,7.5-16.7,16.7c0,9.2,7.5,16.7,16.7,16.7h58.4c9.2,0,16.7-7.5,16.7-16.7
  C384,288.4,376.5,280.9,367.3,280.9"/>
  <path class="st0" d="M197.6,144.7v58.4c0,9.2,7.5,16.7,16.7,16.7c9.2,0,16.7-7.5,16.7-16.7v-58.4c0-9.2-7.5-16.7-16.7-16.7
  C205.1,128,197.6,135.4,197.6,144.7"/>
  <path class="st0" d="M497.3,262.2c-19.6-19.6-51.3-19.6-70.9,0c-19.6,19.6-19.6,51.4,0,70.9c19.6,19.6,51.3,19.6,70.9,0
  C516.9,313.6,516.9,281.8,497.3,262.2 M473.7,309.5L473.7,309.5c-6.5,6.5-17.1,6.5-23.6,0c-6.5-6.5-6.5-17.1,0-23.6
  c6.5-6.5,17.1-6.5,23.6,0C480.2,292.4,480.2,302.9,473.7,309.5"/>
  <path class="st0" d="M249.8,85.6c19.6-19.6,19.6-51.3,0-70.9c-19.6-19.6-51.4-19.6-70.9,0c-19.6,19.6-19.6,51.3,0,70.9
  C198.4,105.1,230.2,105.1,249.8,85.6 M202.5,38.3c6.5-6.5,17.1-6.5,23.6,0c6.5,6.5,6.5,17.1,0,23.6c-6.5,6.5-17.1,6.5-23.6,0
  C196,55.4,196,44.8,202.5,38.3"/>
  <path class="st0" d="M427.1,186.4c9.2,0,16.7,7.5,16.7,16.7c0,9.2-7.5,16.7-16.7,16.7c-9.2,0-16.7-7.5-16.7-16.7
  C410.4,193.9,417.9,186.4,427.1,186.4"/>
  <path class="st0" d="M308.9,68.2c9.2,0,16.7,7.5,16.7,16.7c0,9.2-7.5,16.7-16.7,16.7c-9.2,0-16.7-7.5-16.7-16.7
  C292.2,75.7,299.7,68.2,308.9,68.2"/>
  <path class="st0" d="M427.1,375.5c9.2,0,16.7,7.5,16.7,16.7c0,9.2-7.5,16.7-16.7,16.7c-9.2,0-16.7-7.5-16.7-16.7
  C410.4,383,417.9,375.5,427.1,375.5"/>
  <path class="st0" d="M119.8,68.2c9.2,0,16.7,7.5,16.7,16.7c0,9.2-7.5,16.7-16.7,16.7s-16.7-7.5-16.7-16.7
  C103.1,75.7,110.5,68.2,119.8,68.2"/>
  <path class="st0" d="M443.8,51.5c9.2,0,16.7-7.5,16.7-16.7V18c0-9.2-7.5-16.7-16.7-16.7c-9.2,0-16.7,7.5-16.7,16.7v16.7
  C427.1,44,434.6,51.5,443.8,51.5"/>
  <path class="st0" d="M460.5,118.3v-16.7c0-9.2-7.5-16.7-16.7-16.7c-9.2,0-16.7,7.5-16.7,16.7v16.7c0,9.2,7.5,16.7,16.7,16.7
  C453,135.1,460.5,127.6,460.5,118.3"/>
  <path class="st0" d="M427.1,68.2c0-9.2-7.5-16.7-16.7-16.7h-16.7c-9.2,0-16.7,7.5-16.7,16.7c0,9.2,7.5,16.7,16.7,16.7h16.7
  C419.6,84.9,427.1,77.4,427.1,68.2"/>
  <path class="st0" d="M477.2,84.9H494c9.2,0,16.7-7.5,16.7-16.7c0-9.2-7.5-16.7-16.7-16.7h-16.7c-9.2,0-16.7,7.5-16.7,16.7
  C460.5,77.4,468,84.9,477.2,84.9"/>
  </g>
</svg>
